<svg width="200" height="200" viewBox="0 0 200 200" fill="none" xmlns="http://www.w3.org/2000/svg">
    <path d="M145.718 128.399H136.635L133.416 125.296C147.213 109.21 154.341 87.2639 150.432 63.939C145.028 31.9964 118.355 6.48834 86.1642 2.58169C37.5325 -3.39317 -3.39633 37.5117 2.58204 86.1149C6.49097 118.287 32.014 144.944 63.9753 150.345C87.3139 154.251 109.273 147.127 125.369 133.339L128.473 136.557V145.634L177.334 194.467C182.048 199.178 189.751 199.178 194.465 194.467C199.178 189.756 199.178 182.057 194.465 177.346L145.718 128.399ZM76.7368 128.399C48.1096 128.399 25.0009 105.303 25.0009 76.693C25.0009 48.0826 48.1096 24.9874 76.7368 24.9874C105.364 24.9874 128.473 48.0826 128.473 76.693C128.473 105.303 105.364 128.399 76.7368 128.399Z" fill="#737373"/>
</svg>