<svg width="196" height="196" viewBox="0 0 196 196" fill="none" xmlns="http://www.w3.org/2000/svg">
    <path d="M143.718 126.399H134.635L131.416 123.296C145.213 107.21 152.341 85.2639 148.432 61.939C143.028 29.9964 116.355 4.48834 84.1642 0.581694C35.5325 -5.39317 -5.39633 35.5117 0.582036 84.1149C4.49097 116.287 30.014 142.944 61.9753 148.345C85.3139 152.251 107.273 145.127 123.369 131.339L126.473 134.557V143.634L175.334 192.467C180.048 197.178 187.751 197.178 192.465 192.467C197.178 187.756 197.178 180.057 192.465 175.346L143.718 126.399ZM74.7368 126.399C46.1096 126.399 23.0009 103.303 23.0009 74.693C23.0009 46.0826 46.1096 22.9874 74.7368 22.9874C103.364 22.9874 126.473 46.0826 126.473 74.693C126.473 103.303 103.364 126.399 74.7368 126.399Z" fill="white"/>
</svg>