<svg width="200" height="200" viewBox="0 0 200 200" fill="none" xmlns="http://www.w3.org/2000/svg">
    <path d="M162.979 187.391L162.979 187.392C164.136 192.373 158.702 196.304 154.313 193.644L162.979 187.391ZM162.979 187.391L148.579 125.498L196.508 83.921L196.511 83.9187C200.319 80.5676 198.362 74.2013 193.162 73.7385L193.16 73.7383L129.991 68.3701L105.293 10.0608C105.293 10.0601 105.292 10.0593 105.292 10.0585C103.325 5.31383 96.6207 5.31383 94.6541 10.0585C94.6538 10.0593 94.6534 10.0601 94.6531 10.0608L69.9547 68.3701L6.78553 73.7383L6.78254 73.7385C1.70044 74.2012 -0.384057 80.5646 3.5448 83.9224C3.54525 83.9227 3.54569 83.9231 3.54614 83.9235L51.4723 125.498L37.0724 187.391L37.0724 187.392C35.9157 192.373 41.3496 196.304 45.7389 193.643C45.739 193.643 45.739 193.643 45.7391 193.643L99.9732 160.803L154.312 193.643L162.979 187.391Z" fill="white" stroke="white"/>
</svg>