<svg width="200" height="200" viewBox="0 0 200 200" fill="none" xmlns="http://www.w3.org/2000/svg">
    <g clip-path="url(#clip0_47_2081)">
        <path d="M149.321 163.881L149.321 163.882C150.34 168.264 145.557 171.705 141.705 169.375L149.321 163.881ZM149.321 163.881L138.269 116.449L175.053 84.5859L175.058 84.5812C178.401 81.6435 176.686 76.0533 172.119 75.6473L172.115 75.6469L123.634 71.5329L104.68 26.852C104.68 26.8507 104.679 26.8495 104.679 26.8482C102.948 22.6823 97.0521 22.6823 95.3212 26.8482C95.3206 26.8495 95.3201 26.8507 95.3196 26.852L76.3665 71.5329L27.8855 75.6469L27.8795 75.6475C23.4175 76.0531 21.5761 81.6371 25.0315 84.5883C25.0324 84.5892 25.0334 84.59 25.0344 84.5908L61.8125 116.449L50.7611 163.881L50.761 163.882C49.7419 168.264 54.5252 171.706 58.3778 169.374L100.001 144.207L141.704 169.374L149.321 163.881Z" stroke="white" stroke-width="2"/>
    </g>
    <defs>
        <clipPath id="clip0_47_2081">
            <rect width="196" height="196" fill="white" transform="translate(2 2)"/>
        </clipPath>
    </defs>
</svg>