<svg width="200" height="200" viewBox="0 0 200 200" fill="none" xmlns="http://www.w3.org/2000/svg">
    <g clip-path="url(#clip0_47_2081)">
        <path d="M51.0001 83.6667C42.0167 83.6667 34.6667 91.0167 34.6667 100C34.6667 108.983 42.0167 116.333 51.0001 116.333C59.9834 116.333 67.3334 108.983 67.3334 100C67.3334 91.0167 59.9834 83.6667 51.0001 83.6667ZM149 83.6667C140.017 83.6667 132.667 91.0167 132.667 100C132.667 108.983 140.017 116.333 149 116.333C157.983 116.333 165.333 108.983 165.333 100C165.333 91.0167 157.983 83.6667 149 83.6667ZM100 83.6667C91.0167 83.6667 83.6667 91.0167 83.6667 100C83.6667 108.983 91.0167 116.333 100 116.333C108.983 116.333 116.333 108.983 116.333 100C116.333 91.0167 108.983 83.6667 100 83.6667Z" fill="white"/>
    </g>
    <defs>
        <clipPath id="clip0_47_2081">
            <rect width="196" height="196" fill="white" transform="translate(2 2)"/>
        </clipPath>
    </defs>
</svg>