<svg width="200" height="200" viewBox="0 0 200 200" fill="none" xmlns="http://www.w3.org/2000/svg">
    <g clip-path="url(#clip0_47_2081)">
        <path d="M165.333 26.5H157.167V18.3334C157.167 13.8417 153.492 10.1667 149 10.1667C144.508 10.1667 140.833 13.8417 140.833 18.3334V26.5H59.1666V18.3334C59.1666 13.8417 55.4916 10.1667 50.9999 10.1667C46.5082 10.1667 42.8333 13.8417 42.8333 18.3334V26.5H34.6666C25.6833 26.5 18.3333 33.85 18.3333 42.8334V173.5C18.3333 182.483 25.6833 189.833 34.6666 189.833H165.333C174.317 189.833 181.667 182.483 181.667 173.5V42.8334C181.667 33.85 174.317 26.5 165.333 26.5ZM157.167 173.5H42.8333C38.3416 173.5 34.6666 169.825 34.6666 165.333V67.3334H165.333V165.333C165.333 169.825 161.658 173.5 157.167 173.5Z" fill="white"/>
    </g>
    <defs>
        <clipPath id="clip0_47_2081">
            <rect width="196" height="196" fill="white" transform="translate(2 2)"/>
        </clipPath>
    </defs>
</svg>